<svg xmlns="http://www.w3.org/2000/svg" width="32" height="32" fill="none"><rect width="22" height="28" x="5" y="2" fill="url(#i3449d6-paint0_linear_41451_45747)" rx="3.5"/><rect width="22" height="28" x="5" y="2" fill="url(#i3449d6-paint1_radial_41451_45747)" fill-opacity=".2" rx="3.5"/><path fill="url(#i3449d6-paint2_linear_41451_45747)" d="M23.5 3A2.5 2.5 0 0 1 26 5.5v21a2.5 2.5 0 0 1-2.5 2.5h-15A2.5 2.5 0 0 1 6 26.5v-21A2.5 2.5 0 0 1 8.5 3zm-15-1A3.5 3.5 0 0 0 5 5.5v21A3.5 3.5 0 0 0 8.5 30h15a3.5 3.5 0 0 0 3.5-3.5v-21A3.5 3.5 0 0 0 23.5 2z"/><path fill="url(#i3449d6-paint3_linear_41451_45747)" d="M13 15a6 6 0 0 1 6-6h.5a.5.5 0 0 0 0-1H19a7 7 0 0 0-7 7v1a1 1 0 0 1-1 1H9.5a.5.5 0 0 0 0 1H11a2 2 0 0 0 2-2z"/><path fill="url(#i3449d6-paint4_linear_41451_45747)" d="M19.5 12a3.5 3.5 0 0 0-3.5 3.5v1a4.5 4.5 0 0 1-.273 1.546 4.5 4.5 0 0 0-.454.908A4.5 4.5 0 0 1 11.5 21h-2a.5.5 0 0 1 0-1h2a3.5 3.5 0 0 0 3.5-3.5v-1a4.5 4.5 0 0 1 4.5-4.5h3a.5.5 0 0 1 0 1z"/><path fill="url(#i3449d6-paint5_linear_41451_45747)" d="M15.268 22.033A5.97 5.97 0 0 1 12 23h-.5a.5.5 0 0 0 0 1h.5c1.365 0 2.638-.39 3.715-1.066a4.5 4.5 0 0 1-.447-.901"/><path fill="url(#i3449d6-paint6_linear_41451_45747)" d="M18 16.256a4.5 4.5 0 0 1 1-.229V16a1 1 0 0 1 1-1h2.5a.5.5 0 0 0 0-1H20a2 2 0 0 0-2 2z"/><path fill="url(#i3449d6-paint7_linear_41451_45747)" d="M16.051 20.155a2 2 0 0 0 1.407-2.437l-.009-.032q.37-.27.806-.436a2 2 0 0 0 2.558.026q.458.187.841.487a2 2 0 0 0 1.302 2.201 3.5 3.5 0 0 1 .026.916l-.033.009a2 2 0 0 0-1.407 2.437l.009.033a3.5 3.5 0 0 1-.806.435 2 2 0 0 0-2.557-.026 3.5 3.5 0 0 1-.842-.488 2 2 0 0 0-1.302-2.2 3.5 3.5 0 0 1-.026-.916zm2.699.367a.75.75 0 1 0 1.5 0 .75.75 0 0 0-1.5 0"/><defs><linearGradient id="i3449d6-paint0_linear_41451_45747" x1="11.111" x2="15.576" y1="2" y2="30.067" gradientUnits="userSpaceOnUse"><stop stop-color="#fff"/><stop offset="1" stop-color="#EBEBEB"/></linearGradient><radialGradient id="i3449d6-paint1_radial_41451_45747" cx="0" cy="0" r="1" gradientTransform="rotate(62.354 -1.664 14.585)scale(25.0236 19.2853)" gradientUnits="userSpaceOnUse"><stop offset=".177" stop-color="#fff"/><stop offset="1" stop-color="#B8B8B8"/></radialGradient><linearGradient id="i3449d6-paint2_linear_41451_45747" x1="12.104" x2="16.851" y1="2" y2="29.972" gradientUnits="userSpaceOnUse"><stop stop-color="#BBB"/><stop offset="1" stop-color="#888"/></linearGradient><linearGradient id="i3449d6-paint3_linear_41451_45747" x1="9" x2="24.858" y1="8" y2="21.876" gradientUnits="userSpaceOnUse"><stop stop-color="#E03F8F"/><stop offset="1" stop-color="#BD1E7B"/></linearGradient><linearGradient id="i3449d6-paint4_linear_41451_45747" x1="9" x2="24.858" y1="8" y2="21.876" gradientUnits="userSpaceOnUse"><stop stop-color="#E03F8F"/><stop offset="1" stop-color="#BD1E7B"/></linearGradient><linearGradient id="i3449d6-paint5_linear_41451_45747" x1="9" x2="24.858" y1="8" y2="21.876" gradientUnits="userSpaceOnUse"><stop stop-color="#E03F8F"/><stop offset="1" stop-color="#BD1E7B"/></linearGradient><linearGradient id="i3449d6-paint6_linear_41451_45747" x1="9" x2="24.858" y1="8" y2="21.876" gradientUnits="userSpaceOnUse"><stop stop-color="#E03F8F"/><stop offset="1" stop-color="#BD1E7B"/></linearGradient><linearGradient id="i3449d6-paint7_linear_41451_45747" x1="9" x2="24.858" y1="8" y2="21.876" gradientUnits="userSpaceOnUse"><stop stop-color="#E03F8F"/><stop offset="1" stop-color="#BD1E7B"/></linearGradient></defs></svg>