<svg xmlns="http://www.w3.org/2000/svg" width="32" height="32" fill="currentColor"><path fill="url(#i15919b-a)" d="M5 5.5A3.5 3.5 0 0 1 8.5 2h15A3.5 3.5 0 0 1 27 5.5v21a3.5 3.5 0 0 1-3.5 3.5h-15A3.5 3.5 0 0 1 5 26.5z"/><path fill="url(#i15919b-b)" fill-opacity=".2" d="M5 5.5A3.5 3.5 0 0 1 8.5 2h15A3.5 3.5 0 0 1 27 5.5v21a3.5 3.5 0 0 1-3.5 3.5h-15A3.5 3.5 0 0 1 5 26.5z"/><path fill="url(#i15919b-c)" fill-rule="evenodd" d="M23.5 3h-15A2.5 2.5 0 0 0 6 5.5v21A2.5 2.5 0 0 0 8.5 29h15a2.5 2.5 0 0 0 2.5-2.5v-21A2.5 2.5 0 0 0 23.5 3m-15-1A3.5 3.5 0 0 0 5 5.5v21A3.5 3.5 0 0 0 8.5 30h15a3.5 3.5 0 0 0 3.5-3.5v-21A3.5 3.5 0 0 0 23.5 2z" clip-rule="evenodd"/><path fill="url(#i15919b-d)" d="M23 22a2 2 0 0 1-2 2H11a2 2 0 0 1-2-2v-6.4a2 2 0 0 1 .674-1.497l5-4.428a2 2 0 0 1 2.653 0l5 4.428A2 2 0 0 1 23 15.6z"/><path fill="#B4CDF8" d="M13 16a1 1 0 1 1-2 0 1 1 0 0 1 2 0m4 0a1 1 0 1 1-2 0 1 1 0 0 1 2 0m3 1a1 1 0 1 0 0-2 1 1 0 0 0 0 2m-3 3a1 1 0 1 1-2 0 1 1 0 0 1 2 0m-5 1a1 1 0 1 0 0-2 1 1 0 0 0 0 2m9-1a1 1 0 1 1-2 0 1 1 0 0 1 2 0"/><defs><linearGradient id="i15919b-a" x1="11.111" x2="15.576" y1="2" y2="30.067" gradientUnits="userSpaceOnUse"><stop stop-color="#fff"/><stop offset="1" stop-color="#EBEBEB"/></linearGradient><linearGradient id="i15919b-c" x1="12.104" x2="16.851" y1="2" y2="29.972" gradientUnits="userSpaceOnUse"><stop stop-color="#BBB"/><stop offset="1" stop-color="#888"/></linearGradient><linearGradient id="i15919b-d" x1="9" x2="23.804" y1="9.172" y2="23.149" gradientUnits="userSpaceOnUse"><stop stop-color="#3477EA"/><stop offset="1" stop-color="#1D53A4"/></linearGradient><radialGradient id="i15919b-b" cx="0" cy="0" r="1" gradientTransform="matrix(11.61113 22.16669 -17.08352 8.94852 12.028 9.292)" gradientUnits="userSpaceOnUse"><stop offset=".177" stop-color="#fff"/><stop offset="1" stop-color="#B8B8B8"/></radialGradient></defs></svg>