<svg xmlns="http://www.w3.org/2000/svg" width="32" height="32" fill="currentColor"><path fill="url(#ic8317a-a)" d="M3 6.5A3.5 3.5 0 0 1 6.5 3h19A3.5 3.5 0 0 1 29 6.5v19a3.5 3.5 0 0 1-3.5 3.5h-19A3.5 3.5 0 0 1 3 25.5z"/><path fill="url(#ic8317a-b)" fill-opacity=".2" d="M3 6.5A3.5 3.5 0 0 1 6.5 3h19A3.5 3.5 0 0 1 29 6.5v19a3.5 3.5 0 0 1-3.5 3.5h-19A3.5 3.5 0 0 1 3 25.5z"/><path fill="url(#ic8317a-c)" fill-rule="evenodd" d="M25.5 4h-19A2.5 2.5 0 0 0 4 6.5v19A2.5 2.5 0 0 0 6.5 28h19a2.5 2.5 0 0 0 2.5-2.5v-19A2.5 2.5 0 0 0 25.5 4m-19-1A3.5 3.5 0 0 0 3 6.5v19A3.5 3.5 0 0 0 6.5 29h19a3.5 3.5 0 0 0 3.5-3.5v-19A3.5 3.5 0 0 0 25.5 3z" clip-rule="evenodd"/><path fill="url(#ic8317a-d)" d="M16 14c1.475 0 2.857-.237 3.907-.657A5 5 0 0 0 21 12.751v6.75c0 1.424-2.149 2.5-5 2.5s-5-1.076-5-2.5v-6.75c.322.239.698.434 1.093.592 1.05.42 2.432.657 3.907.657"/><path fill="url(#ic8317a-e)" d="M11 11c0 1.105 2.239 2 5 2s5-.895 5-2l-.001-.043C20.942 9.872 18.726 9 16 9c-2.071 0-3.848.504-4.607 1.222-.24.226-.378.475-.392.735z"/><path fill="url(#ic8317a-f)" d="M24 22.761a.85.85 0 0 0-1.403-.645l-3.654 3.131a.85.85 0 0 0-.086 1.206l3.654 4.175c.516.591 1.49.225 1.49-.56v-7.307Z"/><path fill="url(#ic8317a-g)" d="M25 22.761a.85.85 0 0 1 1.403-.645l3.654 3.131a.85.85 0 0 1 .086 1.206l-3.654 4.175c-.516.591-1.49.225-1.49-.56v-7.307Z"/><path fill="#F5F5F5" fill-rule="evenodd" d="m21.758 31.287-3.654-4.176a1.85 1.85 0 0 1 .189-2.623l3.653-3.132c.81-.694 1.92-.53 2.554.135.634-.666 1.743-.83 2.554-.135l3.654 3.132a1.85 1.85 0 0 1 .188 2.623l-3.654 4.176c-.783.894-2.046.781-2.742.054-.696.727-1.96.84-2.742-.054M24 30.094c-.021.767-.978 1.118-1.49.534l-3.653-4.175a.85.85 0 0 1 .086-1.206l3.654-3.131A.85.85 0 0 1 24 22.76zm1 0c.021.767.978 1.118 1.49.534l3.653-4.175a.85.85 0 0 0-.086-1.206l-3.654-3.131A.85.85 0 0 0 25 22.76v7.333Z" clip-rule="evenodd"/><defs><linearGradient id="ic8317a-a" x1="10.222" x2="13.511" y1="3" y2="29.311" gradientUnits="userSpaceOnUse"><stop stop-color="#fff"/><stop offset="1" stop-color="#EBEBEB"/></linearGradient><linearGradient id="ic8317a-c" x1="11.396" x2="14.897" y1="3" y2="29.256" gradientUnits="userSpaceOnUse"><stop stop-color="#BBB"/><stop offset="1" stop-color="#888"/></linearGradient><linearGradient id="ic8317a-d" x1="11" x2="23.565" y1="9" y2="18.665" gradientUnits="userSpaceOnUse"><stop stop-color="#008EE6"/><stop offset="1" stop-color="#006094"/></linearGradient><linearGradient id="ic8317a-e" x1="11" x2="23.565" y1="9" y2="18.665" gradientUnits="userSpaceOnUse"><stop stop-color="#008EE6"/><stop offset="1" stop-color="#006094"/></linearGradient><linearGradient id="ic8317a-f" x1="18.646" x2="27.357" y1="21.909" y2="33.227" gradientUnits="userSpaceOnUse"><stop stop-color="#008EE6"/><stop offset="1" stop-color="#006094"/></linearGradient><linearGradient id="ic8317a-g" x1="18.646" x2="27.357" y1="21.909" y2="33.227" gradientUnits="userSpaceOnUse"><stop stop-color="#008EE6"/><stop offset="1" stop-color="#006094"/></linearGradient><radialGradient id="ic8317a-b" cx="0" cy="0" r="1" gradientTransform="matrix(13.7222 20.58336 -17.81255 11.875 11.306 9.771)" gradientUnits="userSpaceOnUse"><stop offset=".177" stop-color="#fff"/><stop offset="1" stop-color="#B8B8B8"/></radialGradient></defs></svg>