<svg xmlns="http://www.w3.org/2000/svg" width="32" height="32" fill="currentColor"><g clip-path="url(#iccc640-a)"><mask id="iccc640-b" width="32" height="32" x="0" y="0" maskUnits="userSpaceOnUse" style="mask-type:luminance"><path fill="#fff" d="M32 0H0v32h32z"/></mask><g mask="url(#iccc640-b)"><path fill="url(#iccc640-c)" d="M3 6.5A3.5 3.5 0 0 1 6.5 3h19A3.5 3.5 0 0 1 29 6.5v19a3.5 3.5 0 0 1-3.5 3.5h-19A3.5 3.5 0 0 1 3 25.5z"/><path fill="url(#iccc640-d)" fill-opacity=".2" d="M3 6.5A3.5 3.5 0 0 1 6.5 3h19A3.5 3.5 0 0 1 29 6.5v19a3.5 3.5 0 0 1-3.5 3.5h-19A3.5 3.5 0 0 1 3 25.5z"/><path fill="url(#iccc640-e)" fill-rule="evenodd" d="M25.5 4h-19A2.5 2.5 0 0 0 4 6.5v19A2.5 2.5 0 0 0 6.5 28h19a2.5 2.5 0 0 0 2.5-2.5v-19A2.5 2.5 0 0 0 25.5 4m-19-1A3.5 3.5 0 0 0 3 6.5v19A3.5 3.5 0 0 0 6.5 29h19a3.5 3.5 0 0 0 3.5-3.5v-19A3.5 3.5 0 0 0 25.5 3z" clip-rule="evenodd"/><path fill="#F5F5F5" d="M31.59 28.44c-.28-.28-.66-.44-1.06-.44h-1.5v-3.5c0-.83-.67-1.5-1.5-1.5s-1.5.67-1.5 1.5v1.88c0-.91-.39-1.79-1.06-2.42-.66-.62-1.52-.96-2.44-.96s-1.78.34-2.44.96c-.1.09-.19.19-.28.3-.1-.2-.25-.38-.43-.52-.62-.47-1.39-.74-2.17-.74h-.4a2.86 2.86 0 0 0-1.83.66c-.28.25-.52.55-.7.89-.18.35-.28.72-.31 1.1v.11c0 .75.32 1.4.9 1.89-.22.09-.42.24-.57.43-.52.64-.42 1.59.22 2.11s1.44.8 2.27.8h.2c.7 0 1.31-.17 1.8-.51.37-.25.65-.58.84-.96.13.19.28.36.45.52.66.62 1.52.96 2.44.96.55 0 1.1-.13 1.59-.37l.09.07c.26.2.57.3.9.3.47 0 .92-.22 1.2-.6 0 0 0-.01.01-.02.27.37.71.61 1.2.61h3c.82 0 1.5-.66 1.5-1.49 0-.4-.15-.78-.44-1.06zm-12.56-2.11h-.01z"/><path fill="url(#iccc640-f)" fill-rule="evenodd" d="M22.531 24a2.57 2.57 0 0 0-1.756.684 2.32 2.32 0 0 0-.744 1.691v1.25c0 .64.272 1.248.744 1.69a2.57 2.57 0 0 0 1.756.685c.6 0 1.181-.205 1.637-.58l.64.48a.5.5 0 0 0 .6-.8l-.616-.461c.155-.313.24-.658.24-1.014v-1.25c0-.64-.273-1.248-.745-1.69A2.57 2.57 0 0 0 22.531 24m.877 3.6.56.42a1.3 1.3 0 0 0 .063-.395v-1.25c0-.354-.15-.7-.427-.961A1.57 1.57 0 0 0 22.53 25a1.57 1.57 0 0 0-1.072.414c-.278.26-.428.607-.428.961v1.25c0 .354.15.7.428.961.28.262.664.414 1.072.414a1.6 1.6 0 0 0 .796-.21l-.52-.39a.5.5 0 1 1 .6-.8Z" clip-rule="evenodd"/><path fill="url(#iccc640-g)" d="M18.774 24.53a2.56 2.56 0 0 0-1.809-.518 1.86 1.86 0 0 0-1.796 1 1.8 1.8 0 0 0-.199.713l-.001.017v.017c0 .661.416 1.073.806 1.31.368.222.792.341 1.033.409l.026.007.079.022c.248.07.498.139.704.264.2.121.3.257.3.477 0 .352-.122.499-.244.582-.155.106-.4.163-.704.163h-.021l-.022.001a1.6 1.6 0 0 1-1.142-.351.5.5 0 1 0-.63.776 2.6 2.6 0 0 0 1.836.573c.39-.002.858-.072 1.245-.335.428-.29.681-.765.681-1.409 0-.67-.379-1.088-.78-1.332-.334-.203-.723-.309-.957-.373l-.075-.02c-.256-.073-.564-.16-.81-.31-.23-.139-.32-.275-.325-.438a.84.84 0 0 1 .603-.733.9.9 0 0 1 .34-.03l.059.006.058-.007c.405-.049.813.063 1.135.311a.5.5 0 0 0 .61-.793Z"/><path fill="url(#iccc640-h)" d="M28.031 24.5a.5.5 0 1 0-1 0v4.992a.5.5 0 0 0 .499.5l3 .008a.5.5 0 1 0 .003-1l-2.502-.007z"/><path fill="url(#iccc640-i)" d="M16 14c1.475 0 2.857-.237 3.907-.657A5 5 0 0 0 21 12.751v6.75c0 1.424-2.149 2.5-5 2.5s-5-1.076-5-2.5v-6.75c.322.239.698.434 1.093.592 1.05.42 2.432.657 3.907.657"/><path fill="url(#iccc640-j)" d="M11 11c0 1.105 2.239 2 5 2s5-.895 5-2l-.001-.043C20.942 9.872 18.726 9 16 9c-2.071 0-3.848.504-4.607 1.222-.24.226-.378.475-.392.735z"/></g></g><defs><linearGradient id="iccc640-c" x1="10.222" x2="13.511" y1="3" y2="29.311" gradientUnits="userSpaceOnUse"><stop stop-color="#fff"/><stop offset="1" stop-color="#EBEBEB"/></linearGradient><linearGradient id="iccc640-e" x1="11.396" x2="14.897" y1="3" y2="29.256" gradientUnits="userSpaceOnUse"><stop stop-color="#BBB"/><stop offset="1" stop-color="#888"/></linearGradient><linearGradient id="iccc640-f" x1="14.969" x2="18.902" y1="24" y2="34.531" gradientUnits="userSpaceOnUse"><stop stop-color="#008EE6"/><stop offset="1" stop-color="#006094"/></linearGradient><linearGradient id="iccc640-g" x1="14.969" x2="18.902" y1="24" y2="34.531" gradientUnits="userSpaceOnUse"><stop stop-color="#008EE6"/><stop offset="1" stop-color="#006094"/></linearGradient><linearGradient id="iccc640-h" x1="14.969" x2="18.902" y1="24" y2="34.531" gradientUnits="userSpaceOnUse"><stop stop-color="#008EE6"/><stop offset="1" stop-color="#006094"/></linearGradient><linearGradient id="iccc640-i" x1="11" x2="23.565" y1="9" y2="18.665" gradientUnits="userSpaceOnUse"><stop stop-color="#008EE6"/><stop offset="1" stop-color="#006094"/></linearGradient><linearGradient id="iccc640-j" x1="11" x2="23.565" y1="9" y2="18.665" gradientUnits="userSpaceOnUse"><stop stop-color="#008EE6"/><stop offset="1" stop-color="#006094"/></linearGradient><radialGradient id="iccc640-d" cx="0" cy="0" r="1" gradientTransform="matrix(13.7222 20.58336 -17.81255 11.875 11.306 9.771)" gradientUnits="userSpaceOnUse"><stop offset=".177" stop-color="#fff"/><stop offset="1" stop-color="#B8B8B8"/></radialGradient><clipPath id="iccc640-a"><path fill="#fff" d="M0 0h32v32H0z"/></clipPath></defs></svg>