<svg xmlns="http://www.w3.org/2000/svg" width="32" height="32" fill="currentColor"><path fill="url(#iab4f30-a)" d="M5 5.5A3.5 3.5 0 0 1 8.5 2h15A3.5 3.5 0 0 1 27 5.5v21a3.5 3.5 0 0 1-3.5 3.5h-15A3.5 3.5 0 0 1 5 26.5z"/><path fill="url(#iab4f30-b)" fill-opacity=".2" d="M5 5.5A3.5 3.5 0 0 1 8.5 2h15A3.5 3.5 0 0 1 27 5.5v21a3.5 3.5 0 0 1-3.5 3.5h-15A3.5 3.5 0 0 1 5 26.5z"/><path fill="url(#iab4f30-c)" fill-rule="evenodd" d="M23.5 3h-15A2.5 2.5 0 0 0 6 5.5v21A2.5 2.5 0 0 0 8.5 29h15a2.5 2.5 0 0 0 2.5-2.5v-21A2.5 2.5 0 0 0 23.5 3m-15-1A3.5 3.5 0 0 0 5 5.5v21A3.5 3.5 0 0 0 8.5 30h15a3.5 3.5 0 0 0 3.5-3.5v-21A3.5 3.5 0 0 0 23.5 2z" clip-rule="evenodd"/><path fill="url(#iab4f30-d)" d="M13.99 22.69a1.5 1.5 0 0 0-.154.31H11a2 2 0 0 1-2-2v-6.4a2 2 0 0 1 .674-1.497l5-4.428a2 2 0 0 1 2.653 0l5 4.428A2 2 0 0 1 23 14.6v3.409L22.98 18a1.5 1.5 0 0 0-.94-.01l-.12.05c-.37.15-.66.44-.81.81-.01.02-.05.07-.11.13-.06-.05-.11-.11-.11-.13a1.49 1.49 0 0 0-1.39-.93h-.14a1.5 1.5 0 0 0-1.256.94 1 1 0 0 1-.104.12c-.06-.05-.11-.11-.11-.13a1.49 1.49 0 0 0-1.39-.93h-.14c-.57.05-1.05.42-1.26.95-.04.08-.06.13-.06.13q-.013.012-.09.032l-.03.008a1.5 1.5 0 0 0-1.13 1.79 1.46 1.46 0 0 0 1.264 1.15l-.004.01c-.008.009-.038.017-.09.032l-.03.008c-.39.09-.73.32-.94.66"/><path fill="url(#iab4f30-e)" d="M23.75 21h-.01a.502.502 0 0 0 .1-.99c-.47-.11-.71-.31-.89-.78a.49.49 0 0 0-.46-.32c-.2 0-.38.12-.46.31-.15.38-.6.78-1.04.78s-.88-.41-1.03-.78c-.16-.38-.78-.38-.93 0s-.6.78-1.04.78-.88-.41-1.03-.78c-.08-.19-.26-.33-.47-.31-.2 0-.39.13-.46.32-.18.47-.41.67-.89.78-.27.06-.44.33-.38.6s.33.43.6.38c.5-.11.88-.32 1.17-.65.37.38.86.66 1.46.66s1.13-.29 1.51-.69c.37.39.91.69 1.49.69s1.1-.28 1.48-.66c.29.33.67.54 1.17.65.031.008.08.01.1.01h-.01z"/><path fill="url(#iab4f30-f)" d="M23.75 24h-.01a.502.502 0 0 0 .1-.99c-.47-.11-.71-.31-.89-.78a.49.49 0 0 0-.46-.32c-.2 0-.38.12-.46.31-.15.38-.6.78-1.04.78s-.88-.41-1.03-.78c-.16-.38-.78-.38-.93 0s-.6.78-1.04.78-.88-.41-1.03-.78c-.08-.19-.26-.33-.47-.31-.2 0-.39.13-.46.32-.18.47-.41.67-.89.78-.27.06-.44.33-.38.6s.33.43.6.38c.5-.11.88-.32 1.17-.65.37.38.86.66 1.46.66s1.13-.29 1.51-.69c.37.39.91.69 1.49.69s1.1-.28 1.48-.66c.29.33.67.54 1.17.65.031.008.08.01.1.01h-.01z"/><defs><linearGradient id="iab4f30-a" x1="11.111" x2="15.576" y1="2" y2="30.067" gradientUnits="userSpaceOnUse"><stop stop-color="#fff"/><stop offset="1" stop-color="#EBEBEB"/></linearGradient><linearGradient id="iab4f30-c" x1="12.104" x2="16.851" y1="2" y2="29.972" gradientUnits="userSpaceOnUse"><stop stop-color="#BBB"/><stop offset="1" stop-color="#888"/></linearGradient><linearGradient id="iab4f30-d" x1="9" x2="24.817" y1="8.172" y2="23.393" gradientUnits="userSpaceOnUse"><stop stop-color="#3477EA"/><stop offset="1" stop-color="#1D53A4"/></linearGradient><linearGradient id="iab4f30-e" x1="9" x2="24.817" y1="8.172" y2="23.393" gradientUnits="userSpaceOnUse"><stop stop-color="#3477EA"/><stop offset="1" stop-color="#1D53A4"/></linearGradient><linearGradient id="iab4f30-f" x1="9" x2="24.817" y1="8.172" y2="23.393" gradientUnits="userSpaceOnUse"><stop stop-color="#3477EA"/><stop offset="1" stop-color="#1D53A4"/></linearGradient><radialGradient id="iab4f30-b" cx="0" cy="0" r="1" gradientTransform="matrix(11.61113 22.16669 -17.08352 8.94852 12.028 9.292)" gradientUnits="userSpaceOnUse"><stop offset=".177" stop-color="#fff"/><stop offset="1" stop-color="#B8B8B8"/></radialGradient></defs></svg>