<svg xmlns="http://www.w3.org/2000/svg" width="32" height="32" fill="currentColor"><path fill="url(#i7cb92d-a)" fill-rule="evenodd" d="m3.148 21.322-.41 1.501c-.153.48-.367 1.186-.482 1.814a3.94 3.94 0 0 0 3.247 5.313c.554.08 1.181.075 1.884-.028l3.23-.446a2.05 2.05 0 0 0 1.695-1.49l2.223-8.164z" clip-rule="evenodd"/><path fill="url(#i7cb92d-b)" d="M6.298 21.71c-3.404.527-4.103 3.096-4.103 3.096l3.26-11.979 17.035-2.304-2.323 8.438c-.12.452-.5.798-.971.87l-.095.016-12.898 1.879z"/><path fill="url(#i7cb92d-c)" fill-opacity=".8" d="M6.298 21.71c-3.404.527-4.103 3.096-4.103 3.096l3.26-11.979 17.035-2.304-2.323 8.438c-.12.452-.5.798-.971.87l-.095.016-12.898 1.879z"/><path fill="url(#i7cb92d-d)" d="m8.23 14.066 18.86-2.786c.448-.06.811-.39.926-.82l1.946-7.043a1.116 1.116 0 0 0-1.218-1.408L10.75 4.668a5.03 5.03 0 0 0-4.044 3.636L4.11 17.709c.52-1.902.84-3.05 4.12-3.643"/><path fill="url(#i7cb92d-e)" d="m8.23 14.066 18.86-2.786c.448-.06.811-.39.926-.82l1.946-7.043a1.116 1.116 0 0 0-1.218-1.408L10.75 4.668a5.03 5.03 0 0 0-4.044 3.636L4.11 17.709c.52-1.902.84-3.05 4.12-3.643"/><path fill="url(#i7cb92d-f)" fill-opacity=".4" d="m8.23 14.066 18.86-2.786c.448-.06.811-.39.926-.82l1.946-7.043a1.116 1.116 0 0 0-1.218-1.408L10.75 4.668a5.03 5.03 0 0 0-4.044 3.636L4.11 17.709c.52-1.902.84-3.05 4.12-3.643"/><path fill="url(#i7cb92d-g)" d="M8.23 14.066c-2.731.495-3.409 1.374-3.86 2.753l-2.175 7.988s.695-2.543 4.058-3.087L19.1 19.848l.095-.016c.471-.071.851-.419.972-.87l1.911-6.941-13.85 2.045Z"/><path fill="url(#i7cb92d-h)" fill-opacity=".2" d="M8.23 14.066c-2.731.495-3.409 1.374-3.86 2.753l-2.175 7.988s.695-2.543 4.058-3.087L19.1 19.848l.095-.016c.471-.071.851-.419.972-.87l1.911-6.941-13.85 2.045Z"/><path fill="url(#i7cb92d-i)" fill-rule="evenodd" d="M6.253 21.72c-2.842.46-3.775 2.342-3.997 2.916a3.94 3.94 0 0 0 3.247 5.314c.554.08 1.181.075 1.884-.028l3.23-.446a2.05 2.05 0 0 0 1.695-1.49l2.026-7.443z" clip-rule="evenodd"/><defs><linearGradient id="i7cb92d-a" x1="8.268" x2="8.268" y1="30.005" y2="19.822" gradientUnits="userSpaceOnUse"><stop offset=".056" stop-color="#2AAC94"/><stop offset=".155" stop-color="#239C87"/><stop offset=".372" stop-color="#177E71"/><stop offset=".588" stop-color="#0E6961"/><stop offset=".799" stop-color="#095D57"/><stop offset="1" stop-color="#085954"/></linearGradient><linearGradient id="i7cb92d-b" x1="21.134" x2="11.302" y1="22.617" y2="11.923" gradientUnits="userSpaceOnUse"><stop offset=".042" stop-color="#ABE88E"/><stop offset=".549" stop-color="#2AAA92"/><stop offset=".906" stop-color="#117865"/></linearGradient><linearGradient id="i7cb92d-c" x1="-3.028" x2="6.329" y1="22.097" y2="18.906" gradientUnits="userSpaceOnUse"><stop stop-color="#6AD6F9"/><stop offset="1" stop-color="#6AD6F9" stop-opacity="0"/></linearGradient><linearGradient id="i7cb92d-d" x1="4.11" x2="29.016" y1="9.855" y2="9.855" gradientUnits="userSpaceOnUse"><stop offset=".043" stop-color="#25FFD4"/><stop offset=".874" stop-color="#55DDB9"/></linearGradient><linearGradient id="i7cb92d-e" x1="4.11" x2="26.546" y1="6.373" y2="16.791" gradientUnits="userSpaceOnUse"><stop stop-color="#6AD6F9"/><stop offset=".23" stop-color="#60E9D0"/><stop offset=".651" stop-color="#6DE9BB"/><stop offset=".994" stop-color="#ABE88E"/></linearGradient><linearGradient id="i7cb92d-f" x1="6.185" x2="18.385" y1="8.323" y2="11.021" gradientUnits="userSpaceOnUse"><stop stop-color="#fff" stop-opacity="0"/><stop offset=".459" stop-color="#fff"/><stop offset="1" stop-color="#fff" stop-opacity="0"/></linearGradient><linearGradient id="i7cb92d-g" x1="10.23" x2="10.518" y1="18.774" y2="10.219" gradientUnits="userSpaceOnUse"><stop offset=".205" stop-color="#063D3B" stop-opacity="0"/><stop offset=".586" stop-color="#063D3B" stop-opacity=".237"/><stop offset=".872" stop-color="#063D3B" stop-opacity=".75"/></linearGradient><linearGradient id="i7cb92d-h" x1="1.166" x2="11.592" y1="17.923" y2="19.884" gradientUnits="userSpaceOnUse"><stop stop-color="#fff" stop-opacity="0"/><stop offset=".459" stop-color="#fff"/><stop offset="1" stop-color="#fff" stop-opacity="0"/></linearGradient><linearGradient id="i7cb92d-i" x1="8.698" x2="6.664" y1="27.183" y2="17.238" gradientUnits="userSpaceOnUse"><stop offset=".064" stop-color="#063D3B" stop-opacity="0"/><stop offset=".17" stop-color="#063D3B" stop-opacity=".135"/><stop offset=".562" stop-color="#063D3B" stop-opacity=".599"/><stop offset=".85" stop-color="#063D3B" stop-opacity=".9"/><stop offset="1" stop-color="#063D3B"/></linearGradient></defs></svg>