<svg xmlns="http://www.w3.org/2000/svg" width="32" height="32" fill="currentColor"><path fill="url(#if8f0e6-a)" d="M2 8.5A3.5 3.5 0 0 1 5.5 5h21A3.5 3.5 0 0 1 30 8.5v15a3.5 3.5 0 0 1-3.5 3.5h-21A3.5 3.5 0 0 1 2 23.5z"/><path fill="url(#if8f0e6-b)" fill-opacity=".2" d="M2 8.5A3.5 3.5 0 0 1 5.5 5h21A3.5 3.5 0 0 1 30 8.5v15a3.5 3.5 0 0 1-3.5 3.5h-21A3.5 3.5 0 0 1 2 23.5z"/><path fill="url(#if8f0e6-c)" fill-rule="evenodd" d="M26.5 6h-21A2.5 2.5 0 0 0 3 8.5v15A2.5 2.5 0 0 0 5.5 26h21a2.5 2.5 0 0 0 2.5-2.5v-15A2.5 2.5 0 0 0 26.5 6m-21-1A3.5 3.5 0 0 0 2 8.5v15A3.5 3.5 0 0 0 5.5 27h21a3.5 3.5 0 0 0 3.5-3.5v-15A3.5 3.5 0 0 0 26.5 5z" clip-rule="evenodd"/><path fill="url(#if8f0e6-d)" d="M14 18a1 1 0 1 1-2 0 1 1 0 0 1 2 0"/><path fill="url(#if8f0e6-e)" d="M17 18a1 1 0 1 1-2 0 1 1 0 0 1 2 0"/><path fill="url(#if8f0e6-f)" d="M20 18a1 1 0 1 1-2 0 1 1 0 0 1 2 0"/><path fill="url(#if8f0e6-g)" fill-rule="evenodd" d="M11.805 10c-.291 0-.57.12-.764.331l-2.775 3C7.67 13.975 8.14 15 9.03 15H10v5a2 2 0 0 0 2 2h8a2 2 0 0 0 2-2v-5h.97c.89 0 1.36-1.025.764-1.669l-2.775-3a1.04 1.04 0 0 0-.764-.331zM11 15h10v5a1 1 0 0 1-1 1h-8a1 1 0 0 1-1-1z" clip-rule="evenodd"/><defs><linearGradient id="if8f0e6-a" x1="9.778" x2="11.977" y1="5" y2="27.395" gradientUnits="userSpaceOnUse"><stop stop-color="#fff"/><stop offset="1" stop-color="#EBEBEB"/></linearGradient><linearGradient id="if8f0e6-c" x1="11.042" x2="13.385" y1="5" y2="27.366" gradientUnits="userSpaceOnUse"><stop stop-color="#BBB"/><stop offset="1" stop-color="#888"/></linearGradient><linearGradient id="if8f0e6-d" x1="8" x2="19.52" y1="10" y2="25.36" gradientUnits="userSpaceOnUse"><stop stop-color="#7751B8"/><stop offset="1" stop-color="#5A409C"/></linearGradient><linearGradient id="if8f0e6-e" x1="8" x2="19.52" y1="10" y2="25.36" gradientUnits="userSpaceOnUse"><stop stop-color="#7751B8"/><stop offset="1" stop-color="#5A409C"/></linearGradient><linearGradient id="if8f0e6-f" x1="8" x2="19.52" y1="10" y2="25.36" gradientUnits="userSpaceOnUse"><stop stop-color="#7751B8"/><stop offset="1" stop-color="#5A409C"/></linearGradient><linearGradient id="if8f0e6-g" x1="8" x2="19.52" y1="10" y2="25.36" gradientUnits="userSpaceOnUse"><stop stop-color="#7751B8"/><stop offset="1" stop-color="#5A409C"/></linearGradient><radialGradient id="if8f0e6-b" cx="0" cy="0" r="1" gradientTransform="matrix(14.77778 17.41673 -16.11024 13.66925 10.944 10.73)" gradientUnits="userSpaceOnUse"><stop offset=".177" stop-color="#fff"/><stop offset="1" stop-color="#B8B8B8"/></radialGradient></defs></svg>