<svg xmlns="http://www.w3.org/2000/svg" width="32" height="32" fill="none"><path fill="url(#i6cb9a1-i5aa58d-paint0_linear_64423_1148)" d="M3 6.5A3.5 3.5 0 0 1 6.5 3h19A3.5 3.5 0 0 1 29 6.5v19a3.5 3.5 0 0 1-3.5 3.5h-19A3.5 3.5 0 0 1 3 25.5z"/><path fill="url(#i6cb9a1-i5aa58d-paint1_radial_64423_1148)" fill-opacity=".2" d="M3 6.5A3.5 3.5 0 0 1 6.5 3h19A3.5 3.5 0 0 1 29 6.5v19a3.5 3.5 0 0 1-3.5 3.5h-19A3.5 3.5 0 0 1 3 25.5z"/><path fill="url(#i6cb9a1-i5aa58d-paint2_linear_64423_1148)" fill-rule="evenodd" d="M25.5 4h-19A2.5 2.5 0 0 0 4 6.5v19A2.5 2.5 0 0 0 6.5 28h19a2.5 2.5 0 0 0 2.5-2.5v-19A2.5 2.5 0 0 0 25.5 4m-19-1A3.5 3.5 0 0 0 3 6.5v19A3.5 3.5 0 0 0 6.5 29h19a3.5 3.5 0 0 0 3.5-3.5v-19A3.5 3.5 0 0 0 25.5 3z" clip-rule="evenodd"/><path fill="url(#i6cb9a1-i5aa58d-paint3_linear_64423_1148)" d="M13.045 23a.478.478 0 0 1-.471-.546 8.576 8.576 0 0 1 8.478-7.329h.859c.587 0 1.016-.35 1.016-.938l.05-.23v4.084c0 .644-.521 1.165-1.164 1.165h-.482a4.08 4.08 0 0 0-3.895 2.884l-.154.497a.58.58 0 0 1-.555.413z"/><path fill="url(#i6cb9a1-i5aa58d-paint4_linear_64423_1148)" d="M13.045 23a.478.478 0 0 1-.471-.546 8.576 8.576 0 0 1 8.478-7.329h.859c.587 0 1.016-.35 1.016-.938l.05-.23v4.084c0 .644-.521 1.165-1.164 1.165h-.482a4.08 4.08 0 0 0-3.895 2.884l-.154.497a.58.58 0 0 1-.555.413z"/><path fill="url(#i6cb9a1-i5aa58d-paint5_linear_64423_1148)" d="M9.583 18.335A.585.585 0 0 1 9 17.75v-3.5c0-.322.262-.584.583-.584h10.48c.321 0 .583.262.583.584v3.5a.585.585 0 0 1-.583.585z"/><path fill="url(#i6cb9a1-i5aa58d-paint6_radial_64423_1148)" d="M9.583 18.335A.585.585 0 0 1 9 17.75v-3.5c0-.322.262-.584.583-.584h10.48c.321 0 .583.262.583.584v3.5a.585.585 0 0 1-.583.585z"/><path fill="url(#i6cb9a1-i5aa58d-paint7_linear_64423_1148)" d="M13.052 9a.485.485 0 0 0-.479.553 8.71 8.71 0 0 0 8.615 7.466h.723c.587 0 1.062.476 1.062 1.064V13.96c0-.644-.52-1.166-1.163-1.166h-.483a4.08 4.08 0 0 1-3.895-2.884l-.153-.497A.58.58 0 0 0 16.723 9z"/><path fill="url(#i6cb9a1-i5aa58d-paint8_linear_64423_1148)" d="M21.81 12.79h-.483c-.828 0-1.61-.251-2.263-.692v4.655a8.7 8.7 0 0 0 2.127.266h.723c.587 0 1.062.476 1.062 1.064V13.96c0-.644-.52-1.166-1.163-1.166z" opacity=".4"/><path fill="url(#i6cb9a1-i5aa58d-paint9_linear_64423_1148)" d="M13.08 9a.485.485 0 0 0-.479.553 8.71 8.71 0 0 0 8.615 7.466h.723c.587 0 1.062.476 1.062 1.064V13.96c0-.644-.52-1.166-1.164-1.166h-.482A4.08 4.08 0 0 1 17.46 9.91l-.153-.497A.58.58 0 0 0 16.75 9z" opacity=".7"/><defs><linearGradient id="i6cb9a1-i5aa58d-paint0_linear_64423_1148" x1="10.222" x2="13.511" y1="3" y2="29.311" gradientUnits="userSpaceOnUse"><stop stop-color="#fff"/><stop offset="1" stop-color="#EBEBEB"/></linearGradient><radialGradient id="i6cb9a1-i5aa58d-paint1_radial_64423_1148" cx="0" cy="0" r="1" gradientTransform="matrix(13.7222 20.5833 -20.5833 7.71875 11.306 9.77)" gradientUnits="userSpaceOnUse"><stop offset=".177" stop-color="#fff"/><stop offset="1" stop-color="#B8B8B8"/></radialGradient><linearGradient id="i6cb9a1-i5aa58d-paint2_linear_64423_1148" x1="11.396" x2="14.897" y1="3" y2="29.256" gradientUnits="userSpaceOnUse"><stop stop-color="#BBB"/><stop offset="1" stop-color="#888"/></linearGradient><linearGradient id="i6cb9a1-i5aa58d-paint3_linear_64423_1148" x1="13.391" x2="23.055" y1="23.686" y2="14.042" gradientUnits="userSpaceOnUse"><stop offset=".26" stop-color="#0D7012"/><stop offset="1" stop-color="#085714"/></linearGradient><linearGradient id="i6cb9a1-i5aa58d-paint4_linear_64423_1148" x1="27.695" x2="9.36" y1="16.739" y2="20.805" gradientUnits="userSpaceOnUse"><stop offset=".04" stop-color="#114A8A"/><stop offset="1" stop-color="#0C59A3" stop-opacity="0"/></linearGradient><linearGradient id="i6cb9a1-i5aa58d-paint5_linear_64423_1148" x1="1.699" x2="20.286" y1="16" y2="16" gradientUnits="userSpaceOnUse"><stop stop-color="#107C10"/><stop offset=".96" stop-color="#56B50E"/></linearGradient><radialGradient id="i6cb9a1-i5aa58d-paint6_radial_64423_1148" cx="0" cy="0" r="1" gradientTransform="matrix(1.97266 -2.96036 -7.53405 -5.04022 18.266 15.24)" gradientUnits="userSpaceOnUse"><stop stop-opacity=".3"/><stop offset="1" stop-opacity="0"/></radialGradient><linearGradient id="i6cb9a1-i5aa58d-paint7_linear_64423_1148" x1="23.64" x2="14.59" y1="20.781" y2="7.879" gradientUnits="userSpaceOnUse"><stop offset=".04" stop-color="#33980F"/><stop offset="1" stop-color="#BAE884"/></linearGradient><linearGradient id="i6cb9a1-i5aa58d-paint8_linear_64423_1148" x1="20.828" x2="22.93" y1="15.09" y2="15.09" gradientUnits="userSpaceOnUse"><stop stop-color="#E5FAC1" stop-opacity="0"/><stop offset=".56" stop-color="#E5FAC1" stop-opacity=".52"/><stop offset="1" stop-color="#E5FAC1"/></linearGradient><linearGradient id="i6cb9a1-i5aa58d-paint9_linear_64423_1148" x1="12.13" x2="17.588" y1="2.381" y2="11.812" gradientUnits="userSpaceOnUse"><stop offset=".14" stop-color="#FDE100"/><stop offset=".98" stop-color="#FFC600" stop-opacity="0"/></linearGradient></defs></svg>