<svg xmlns="http://www.w3.org/2000/svg" width="32" height="32" fill="none"><g clip-path="url(#i3fc908-clip0_56017_2913)"><path fill="url(#i3fc908-paint0_linear_56017_2913)" d="M14.746 21.986c3.842-2.218 5.107-7.222 2.825-11.175S10.323 5.451 6.48 7.67c-3.843 2.218-5.108 7.222-2.825 11.175s7.247 5.36 11.09 3.141"/><path fill="url(#i3fc908-paint1_linear_56017_2913)" d="M19.762 10.904c1.995-1.996 1.947-5.278-.107-7.331-2.053-2.053-5.335-2.1-7.33-.104s-1.948 5.278.106 7.33c2.054 2.054 5.336 2.1 7.33.104"/><path fill="url(#i3fc908-paint2_radial_56017_2913)" d="M17.609 29.464c6.644 0 12.03-5.386 12.03-12.03s-5.386-12.03-12.03-12.03-12.03 5.386-12.03 12.03 5.386 12.03 12.03 12.03"/><path fill="url(#i3fc908-paint3_radial_56017_2913)" fill-rule="evenodd" d="M12.896 2.97c-7.063 4.363-9.53 13.552-5.472 20.9q.41.749.891 1.429l.315.048 6.98 2.33 6.63-4.442c-1.11.034-5.728-2.586-8.746-8.314-3.782-7.176-2.223-10.492-.591-11.95z" clip-rule="evenodd"/><path fill="url(#i3fc908-paint4_radial_56017_2913)" fill-opacity=".2" fill-rule="evenodd" d="M12.896 2.97c-7.063 4.363-9.53 13.552-5.472 20.9q.41.749.891 1.429l.315.048 6.98 2.33 6.63-4.442c-1.11.034-5.728-2.586-8.746-8.314-3.782-7.176-2.223-10.492-.591-11.95z" clip-rule="evenodd"/><path fill="url(#i3fc908-paint5_radial_56017_2913)" fill-rule="evenodd" d="M26.759 25.247a12.1 12.1 0 0 0 2.548-4.978c-1.196-3.416-6.008-4.377-8.642-1.705-2.023 2.05-4.124 3.772-5.704 4.08C5.824 24.437 1.946 16.86 2.606 13.44a13.9 13.9 0 0 0 .034 5.414C4.18 26.39 11.532 31.25 19.068 29.713a13.9 13.9 0 0 0 6.111-2.928s.028-.021.038-.031a14 14 0 0 0 1.542-1.511z" clip-rule="evenodd"/></g><defs><linearGradient id="i3fc908-paint0_linear_56017_2913" x1="26.861" x2="2.308" y1="11.084" y2="16.745" gradientUnits="userSpaceOnUse"><stop offset=".2" stop-color="#028FDC"/><stop offset=".51" stop-color="#0078D4"/><stop offset="1" stop-color="#0B315B"/></linearGradient><linearGradient id="i3fc908-paint1_linear_56017_2913" x1="28.602" x2="12.381" y1="18.695" y2="3.828" gradientUnits="userSpaceOnUse"><stop offset=".04" stop-color="#028FDC"/><stop offset=".46" stop-color="#0078D4"/><stop offset="1" stop-color="#0B315B"/></linearGradient><radialGradient id="i3fc908-paint2_radial_56017_2913" cx="0" cy="0" r="1" gradientTransform="rotate(134.83 12.52 5.064)scale(18.1322 23.3919)" gradientUnits="userSpaceOnUse"><stop offset=".39" stop-color="#028FDC"/><stop offset=".59" stop-color="#0078D4"/><stop offset="1" stop-color="#1A508B"/></radialGradient><radialGradient id="i3fc908-paint3_radial_56017_2913" cx="0" cy="0" r="1" gradientTransform="rotate(139.44 8.59 9.18)scale(16.3171 20.1329)" gradientUnits="userSpaceOnUse"><stop offset=".46" stop-color="#40D9FA"/><stop offset=".9" stop-color="#0095E6"/></radialGradient><radialGradient id="i3fc908-paint4_radial_56017_2913" cx="0" cy="0" r="1" gradientTransform="matrix(-1.85792 17.21433 -12.2258 -1.31951 12.083 7.086)" gradientUnits="userSpaceOnUse"><stop offset=".77" stop-opacity="0"/><stop offset="1"/></radialGradient><radialGradient id="i3fc908-paint5_radial_56017_2913" cx="0" cy="0" r="1" gradientTransform="rotate(85.97 -.494 20.846)scale(26.9434 49.1305)" gradientUnits="userSpaceOnUse"><stop offset=".1" stop-color="#BDF5FF"/><stop offset=".47" stop-color="#40D9FA"/></radialGradient><clipPath id="i3fc908-clip0_56017_2913"><path fill="#fff" d="M0 0H32V32H0z"/></clipPath></defs></svg>